<svg width="62" height="63" viewBox="0 0 62 63" fill="none" xmlns="http://www.w3.org/2000/svg">
<rect width="62" height="63" fill="#FFC147"/>
<g clip-path="url(#clip0_1_179)">
<path d="M20.44 21C19.6447 21 19 21.614 19 22.3714C19 23.1288 19.6447 23.7429 20.44 23.7429H22.1957L22.6357 25.4191C22.6403 25.4385 22.6454 25.4577 22.6508 25.4767L24.6052 32.9222L23.3199 34.1462C21.5056 35.8742 22.7906 38.8286 25.3564 38.8286H37.7199C38.5152 38.8286 39.1599 38.2145 39.1599 37.4571C39.1599 36.6998 38.5152 36.0857 37.7199 36.0857H25.3564L26.7964 34.7143H36.28C36.8254 34.7143 37.324 34.4208 37.568 33.9562L41.888 25.7276C42.1112 25.3025 42.0873 24.7976 41.825 24.3933C41.5625 23.989 41.0991 23.7429 40.6 23.7429H25.1643L24.717 22.0388C24.5567 21.4283 23.9808 21 23.32 21L20.44 21Z" fill="white"/>
<path d="M39.16 42.2571C39.16 43.3932 38.1929 44.3142 37 44.3142C35.8071 44.3142 34.84 43.3932 34.84 42.2571C34.84 41.121 35.8071 40.2 37 40.2C38.1929 40.2 39.16 41.121 39.16 42.2571Z" fill="white"/>
<path d="M25.48 44.3142C26.6729 44.3142 27.64 43.3932 27.64 42.2571C27.64 41.121 26.6729 40.2 25.48 40.2C24.2871 40.2 23.32 41.121 23.32 42.2571C23.32 43.3932 24.2871 44.3142 25.48 44.3142Z" fill="white"/>
</g>
<defs>
<clipPath id="clip0_1_179">
<rect width="24" height="24" fill="white" transform="translate(19 21)"/>
</clipPath>
</defs>
</svg>
