<svg width="62" height="63" viewBox="0 0 62 63" fill="none" xmlns="http://www.w3.org/2000/svg">
<rect width="62" height="63" fill="#FFC147"/>
<g clip-path="url(#clip0_1_190)">
<path fill-rule="evenodd" clip-rule="evenodd" d="M21.88 20C20.2894 20 19 21.2894 19 22.88V38.72C19 41.1058 20.9341 43.04 23.32 43.04C25.7059 43.04 27.64 41.1058 27.64 38.72V22.88C27.64 21.2894 26.3506 20 24.76 20H21.88ZM23.32 40.16C24.1153 40.16 24.76 39.5152 24.76 38.72C24.76 37.9248 24.1153 37.28 23.32 37.28C22.5247 37.28 21.88 37.9248 21.88 38.72C21.88 39.5152 22.5247 40.16 23.32 40.16Z" fill="white"/>
<path d="M30.52 37.6293L37.5753 30.574C38.6999 29.4493 38.6999 27.6258 37.5753 26.5011L35.5388 24.4646C34.4141 23.3399 32.5906 23.3399 31.4659 24.4646L30.52 25.4105V37.6293Z" fill="white"/>
<path d="M39.16 43.0399H29.1823L37.8224 34.3999H39.16C40.7506 34.3999 42.04 35.6893 42.04 37.2799V40.1599C42.04 41.7505 40.7506 43.0399 39.16 43.0399Z" fill="white"/>
</g>
<defs>
<clipPath id="clip0_1_190">
<rect width="24" height="24" fill="white" transform="translate(19 20)"/>
</clipPath>
</defs>
</svg>
