<svg width="62" height="63" viewBox="0 0 62 63" fill="none" xmlns="http://www.w3.org/2000/svg">
<rect width="62" height="63" fill="#FFC147"/>
<g clip-path="url(#clip0_1_201)">
<path d="M24.04 35.7091C21.2565 35.7091 19 33.6577 19 31.1273C19 28.7599 20.9749 26.812 23.5087 26.5706C23.3856 26.1446 23.32 25.6975 23.32 25.2364C23.32 22.3444 25.8988 20 29.08 20C31.7855 20 34.0554 21.6958 34.6737 23.9819C34.9635 23.9459 35.2593 23.9273 35.56 23.9273C39.1388 23.9273 42.04 26.5647 42.04 29.8182C42.04 33.0716 39.1388 35.7091 35.56 35.7091H31.96V31.015L33.8218 32.7075C34.3841 33.2188 35.2959 33.2188 35.8582 32.7075C36.4206 32.1963 36.4206 31.3674 35.8582 30.8561L31.5382 26.9289C30.9759 26.4176 30.0641 26.4176 29.5018 26.9289L25.1818 30.8561C24.6194 31.3674 24.6194 32.1963 25.1818 32.7075C25.7441 33.2188 26.6559 33.2188 27.2182 32.7075L29.08 31.015V35.7091H24.04Z" fill="white"/>
<path d="M29.08 35.709H31.96V42.2544C31.96 42.9774 31.3153 43.5635 30.52 43.5635C29.7247 43.5635 29.08 42.9774 29.08 42.2544V35.709Z" fill="white"/>
</g>
<defs>
<clipPath id="clip0_1_201">
<rect width="24" height="24" fill="white" transform="translate(19 20)"/>
</clipPath>
</defs>
</svg>
